<?xml version="1.0" encoding="UTF-8"?>
<svg version="1.1" viewBox="0 0 1600 1303" width="1280" height="1280" xmlns="http://www.w3.org/2000/svg">
<path transform="translate(607,11)" d="m0 0h26l24 4 15 5 25 12 12 8 11 9 16 16 11 15 9 16 6 14 6 21 2 13 1 13v10l-2 21-5 21 2-1h413l18 2 12 5 9 7 7 9 5 11 2 11 1 90h109v203l-2 15-5 13-8 14-9 12-11 12-11 11-11 9-18 14-19 12-14 8-1 22v296l2 10 8 11 10 17 6 16 3 16 1 21-2 21-5 23-10 30h9l4-18 10-30 8-17 7-11 7-9 7-7 22-18 10-9 12-11 13-13 10-14 3-6h2l-1 23-4 29-6 24-8 21-9 17-9 12-11 12-11 9-21 11-11 4 58 1 7 1 5 5 2 4v6l-4 6-5 3h-3v10l-10 96-2 10-4 6-6 3h-147l-5-3-4-5-2-10-2-18-39-1-2 25-2 7-5 5h-116l-5-6-2-12-2-18-280-1v19l-3 9-5 6-9 4-9 2-31 1h-604l-15-1-13-4-7-6-4-10-1-13v-358l1-11 6-12 6-4 10-3 44-1h162l-5-8-5-15-5-18-3-21-1-13v-39l3-32 6-31 6-21 9-25 12-25 6-9 7-6 12-5 13-3 6-1 2-11 3-28-1-10-4-19-2-9 2-5 2-2-1-3 3-16 4-9 6-9 7-6 12-6 13-3 16 1 14 5 11 7 12 10 9 13 4 11v7l-4 8-6 5-13 4-5 22-5 21-5 8-6 5-5 2-7 1-16-3-4 18 6 2 8 5 8 7 5 7 5 14 3 15v5l5-5 6-7 5-2-1-8v-12l2-12 3-1 2 4 5-29 3-6 32 4 3 2-2 18-2 26-6 23-5 5v4l2 2-7 40-7 28-7 19-8 15-7 8-8 5-6 2-11 1 2 21 2 5 15 12 14 11 17 14 11 9 13 11 1 1 127 1v-581l-16-9-17-12-14-13-9-11-10-14-8-15-8-22-4-17-2-22 1-21 4-20 5-16 7-16 8-13 12-16 16-16 15-11 16-9 20-9 19-5zm-211 655-4 3 1 3 5 2 2-6zm-15 38m-1 1-11 18-5 8-2 12v5l3-3 12-28 4-10zm852 440 1 4 5 1-2-4z" fill="#FBFBFB"/>
<path transform="translate(607,11)" d="m0 0h26l24 4 15 5 25 12 12 8 11 9 16 16 11 15 9 16 6 14 6 21 2 13 1 13v10l-2 21-5 21 2-1h413l18 2 12 5 9 7 7 9 5 11 2 11 1 90h109v203l-2 15-5 13-8 14-9 12-11 12-11 11-11 9-18 14-19 12-14 8-1 22v296l2 10 8 11 10 17 6 16 3 16 1 21-2 21-5 23-10 30h9l4-18 10-30 8-17 7-11 7-9 7-7 22-18 10-9 12-11 13-13 10-14 3-6h2l-1 23-4 29-6 24-8 21-9 17-9 12-11 12-11 9-21 11-11 4 58 1 7 1 5 5 2 4v6l-4 6-5 3h-3v10l-10 96-2 10-4 6-6 3h-147l-5-3-4-5-2-10-2-18-39-1-2 25-2 7-5 5h-116l-5-6-2-12-2-18-280-1v19l-3 9-5 6-9 4-9 2-31 1h-604l-15-1-13-4-7-6-4-10-1-13v-60l699-1 1-20h1l1 30h275l-1-11-3-3-6-5v-8l4-5h153l4 4 1 2v6l-4 5-4 1-1 14 30 1-4-45-6-1-5-5-1-9 3-6 3-2 57-1 1-3-5-3-21-10-16-11-8-7v-2l-4-2-3-3v-2l-4-2-9-11-12-20-7-17-5-16-5-27v-2l4 2 5 5 8 7 16 8 10 3 4 8 8 19 13 24 14 21 12 14 3 3 1-11-11-14-12-20-8-16-8-20-7-23-4-23-3-17-1-9-1-21v-22l1-22 2-19 2-4 5 12 8 12 11 13 9 11 7 7 6 7v2l5 2-1-293-5-2-14-9-16-12-13-11-12-11-8-8-13-17-10-19-4-14v-211l1-1 95-1-1-82-3-7-6-7-9-2h-186l-10 3-8 7-7 8-9 10-9 11-7 7-9 11-13 14-7 8-7 7-8 4h-15l-10-6-14-15-9-11-13-14-9-11-14-15-7-8-8-7-5-2-6-1h-44l-16 20-12 12-10 8-15 10-17 8-18 6-12 3-14 2h-25l-20-3v570l93 1 10 3 7 6 4 7 1 5v216l-181-1 1-4h-15l-15-1-21-4-4-2-1-4 1 7 5 3 19 3 3 2-7 1h-75l-5 4-20 4h-6l-6-5-4-11-16-76-16-75-5-22-24-10-31-13-22-11-12-8-10-9-6-7-6-12-8-28-3-21-1-13v-39l3-32 6-31 6-21 9-25 12-25 6-9 7-6 12-5 13-3 6-1 2-11 3-28-1-10-4-19-2-9 2-5 2-2-1-3 3-16 4-9 6-9 7-6 12-6 13-3 16 1 14 5 11 7 12 10 9 13 4 11v7l-4 8-6 5-13 4-5 22-5 21-5 8-6 5-5 2-7 1-16-3-4 18 6 2 8 5 8 7 5 7 5 14 3 15v5l5-5 6-7 5-2-1-8v-12l2-12 3-1 2 4 5-29 3-6 32 4 3 2-2 18-2 26-6 23-5 5v4l2 2-7 40-7 28-7 19-8 15-7 8-8 5-6 2-11 1 2 21 2 5 15 12 14 11 17 14 11 9 13 11 1 1 127 1v-581l-16-9-17-12-14-13-9-11-10-14-8-15-8-22-4-17-2-22 1-21 4-20 5-16 7-16 8-13 12-16 16-16 15-11 16-9 20-9 19-5zm-211 655-4 3 1 3 5 2 2-6zm-15 38m-1 1-11 18-5 8-2 12v5l3-3 12-28 4-10zm852 440 1 4 5 1-2-4z" fill="#5273E4"/>
<path transform="translate(1203,661)" d="m0 0 6 2 2 1v2l6 2 7 1 8-2 1 317 2 10 8 11 10 17 6 16 3 16 1 21-2 21-5 23-10 30h9l4-18 10-30 8-17 7-11 7-9 7-7 22-18 10-9 12-11 13-13 10-14 3-6h2l-1 23-4 29-6 24-8 21-9 17-9 12-11 12-11 9-21 11-11 4 58 1 7 1 5 5 2 4v6l-4 6-5 3h-3v10l-10 96-2 10-4 6-6 3h-147l-5-3-4-5-2-10-2-18-39-1-2 25-2 7-5 5h-116l-5-6-2-12-2-18-280-1v19l-3 9-5 6-9 4-9 2-31 1h-604l-15-1-13-4-7-6-4-10-1-13v-60l699-1 1-20h1l1 30h275l-1-11-3-3-6-5v-8l4-5h153l4 4 1 2v6l-4 5-4 1-1 14 30 1-4-45-6-1-5-5-1-9 3-6 3-2 57-1 1-3-5-3-21-10-16-11-8-7v-2l-4-2-3-3v-2l-4-2-9-11-12-20-7-17-5-16-5-27v-2l4 2 5 5 8 7 16 8 10 3 4 8 8 19 13 24 14 21 12 14 3 3 1-11-11-14-12-20-8-16-8-20-7-23-4-23-3-17-1-9-1-21v-22l1-22 2-19 2-4 5 12 8 12 11 13 9 11 7 7 6 7v2l5 2v-285h2zm29 484 1 4 5 1-2-4z" fill="#36B764"/>
<path transform="translate(1442,538)" d="m0 0 16 1 12 4 8 6 7 8 4 11 1 17-1 8 4 4-1 8-3 6-4 17v27l1 21 16 4 12 6 10 9 6 11 6 16 7 24 7 32 4 30 2 36v20l-2 34-4 28-4 16-5 2-3 56-4 44-4 29-3 15v22l7 145-2 2h-5l8 23v7l-4 3-39 8h-14l-5-3 1-7 8-7 14-9 7-7 1-7h-7l-5-3-8-54-14-100-2-19-1 5-8 116-3 47-7 3 1 7 5 14-1 7-5 3-34 7-11 1-10-2-2-3 1-6 11-8 11-7 8-7 1-5-6-2-3-2-1-38v-133l3-68 3-66v-6l-4-7-2-9 1-7 4-60-6 2h-12l-12-6-8-9-5-10-5-15-5-22-4-28-2-20v-11l1-5-4-5-2-9-3-11v-48l21-2h15l1 1 3 28 1 2 4-1 1 9v16l-2 10 5 1 4 6 5 7 6-23 7-14 5-6 9-7 6-3 7-1-2-14v-5l-11 2h-12l-8-4-5-6-4-11-6-41-1-4-10-1-10-6-4-8 1-9 6-7 4-3 8-3 5-8 7-6 12-6 12-3zm-64 190-2 1 1 5 6-1-2-4zm16 45 1 2zm1 2 2 9 9 26h1v-13l-11-22z" fill="#42B3D1"/>
<path transform="translate(339,472)" d="m0 0 16 1 14 5 11 7 12 10 9 13 4 11v7l-4 8-6 5-13 4-5 22-5 21-5 8-6 5-5 2-7 1-16-3-4 18 6 2 8 5 8 7 5 7 5 14 3 15v5l5-5 6-7 5-2-1-8v-12l2-12 3-1 2 4 5-29 3-6 32 4 3 2-2 18-2 26-6 23-5 5v4l2 2-7 40-7 28-7 19-8 15-7 8-8 5-6 2-11 1 2 21 2 5 15 12 14 11 17 14 11 9 13 11 4 5 8 17 10 28 7 23 6 21 7 26 11 41 6 24 1 3v8l-7 6-15 7-9 1-5-4-12-36-7-22-5-15-8-25-10-29-2-6v-4h-2l-1-3-3-2-3-5-8-5-8-4 7 36 2 16 3 12 13 73 6 35 1 3v11l-5 6-11 3-11 2h-6l-6-5-4-11-16-76-16-75-5-22-24-10-31-13-22-11-12-8-10-9-6-7-6-12-8-28-3-21-1-13v-39l3-32 6-31 6-21 9-25 12-25 6-9 7-6 12-5 13-3 6-1 2-11 3-28-1-10-4-19-2-9 2-5 2-2-1-3 3-16 4-9 6-9 7-6 12-6zm57 194-4 3 1 3 5 2 2-6zm-15 38m-1 1-11 18-5 8-2 12v5l3-3 12-28 4-10z" fill="#F1C11B"/>
<path transform="translate(70,880)" d="m0 0h28l135 1 8 8 3 2v2l4 2 15 9 27 13 27 11 19 8 2 7 7 30 15 71 14 66 1 7h-372v-206l1-11 6-12 6-4 10-3z" fill="#42B3D1"/>
<path transform="translate(703,1188)" d="m0 0h1l1 31h-2v20l1 24v18l-3 9-5 6-9 4-9 2-31 1h-604l-15-1-13-4-7-6-4-10-1-13v-60l699-1z" fill="#42B3D1"/>
<path transform="translate(557,301)" d="m0 0 6 3 1 7v153l-1 17-1 1-2 22-1 105-1 271h31l93 1 10 3 7 6 4 7 1 5v216l-181-1 1-4h-15l-15-1-21-4-4-2-1-4 1 7 5 3 19 3 3 2-7 1h-71l-3-1v-13l-3-15-13-74-6-32-2-8-2-15-5-27v-4l5 1 10 6 4 4 1 3 3 2v3h2l11 33 10 31 5 15 10 32 9 26 4 3 9-1 16-8 5-4v-8l-6-22-9-35-7-26-7-25-6-20-11-33-9-20-2-5h126z" fill="#42B3D1"/>
<path transform="translate(1123,360)" d="m0 0h156l45 1v189l-3 11-6 12-12 17-21 21-14 11-15 11-17 11-11 6-6-1-14-8-20-14-12-9-13-11-14-14-10-13-8-14-4-11-1-10-1-92v-92z" fill="#FCFCFC"/>
<path transform="translate(974,1186)" d="m0 0h153l4 4 1 2v6l-4 5-4 1-1 14 30 1-1-11v-13l3 1 2 5 6-1 16-2 15 2h10l33-2h57l28-4 6-2 7 1 2 2-1 17-7 68-2 10-4 6-6 3h-147l-5-3-4-5-2-10-2-18-39-1-2 25-2 7-5 5h-116l-5-6-2-12-2-18h-281l-1-30 1-14 277-1-1-11-3-3-6-5v-8z" fill="#424242"/>
<path transform="translate(1421,939)" d="m0 0 11 5 13 3 7 1h38l34-3 7-1h9v18l-3 50-4 40-4 26-2 10v22l7 145-2 2h-5l8 23v7l-4 3-39 8h-14l-5-3 1-7 8-7 14-9 7-7 1-7h-7l-5-3-8-54-14-100-2-19-1 5-8 116-3 47-7 3 1 7 5 14-1 7-5 3-34 7-11 1-10-2-2-3 1-6 11-8 11-7 8-7 1-5-6-2-3-2-1-38v-133l3-68 3-66z" fill="#434343"/>
<path transform="translate(1415,302)" d="m0 0h157l11 4 10 9 5 9 2 12v92l-2 10-4 8-6 7-12 6-4 1-39 1-13 1-8 10-11 14-9 11-12 15-6 8h-1v-59l-59-1-10-4-8-7-4-5-4-11-1-17v-73l1-15 7-14 9-8z" fill="#F2C11B"/>
<path transform="translate(257,234)" d="m0 0h158l10 4 9 8 5 9 2 5 1 10v88l-2 11-5 10-7 7-8 4-7 2-57 1v58l-5-4-9-12-13-16-11-14-8-10v-2l-53-1-11-4-8-6-6-10-3-11v-97l3-10 7-11 9-6z" fill="#40B435"/>
<path transform="translate(357,821)" d="m0 0 8 6 13 10 32 26 13 11 8 7 8 16 8 20 10 31 3 11 7 25 7 26 9 35 6 22v8l-7 6-15 7-9 1-5-4-12-36-7-22-5-15-8-25-10-29-2-6v-4h-2l-1-3-3-2-3-5-8-5-8-4 7 36 2 16 3 12 13 73 6 35 1 3v11l-5 6-11 3-11 2h-6l-6-5-4-11-16-76-16-75-5-22-24-10-31-13-22-11-12-8-10-9-6-7-6-12-5-18v-2h77l22-3 19-5 11-6 6-7z" fill="#1B1B1B"/>
<path transform="translate(760,217)" d="m0 0h423l14 2 11 6 7 7 5 10 3 14 1 46v40h-23l-1-82-3-7-6-7-9-2h-186l-10 3-8 7-7 8-9 10-9 11-7 7-9 11-13 14-7 8-7 7-8 4h-15l-10-6-14-15-9-11-13-14-9-11-14-15-7-8-8-7-9-4-45-1 2-6z" fill="#131968"/>
<path transform="translate(619,66)" d="m0 0 16 2 13 4 8 6 7 8 5 12 1 5v32l10 2 5 6 1 2v104l-4 6-6 3h-110l-8-5-2-5-1-91 1-13 4-5 6-3 6-1v-30l4-14 6-10 10-8 10-4 9-2z" fill="#FCFCFC"/>
<path transform="translate(1373,657)" d="m0 0h15l1 1 3 28 1 2 4-1 1 9v16l-2 10 5 1 4 6 5 7 3-10 2-1 6 26 8 11 7 8 8 7 16 16h3l7-28 8-26 8-18 7-9 7-6 5-2 8 1 6 4 5 5 3 16v20l-4 26-6 26-4 13-2 8h-2l1 3-2 4-2 7-4 10-5 10-7 9-8 6-4 2-8 1-9-2-16-8-14-12-7-7-4-2v11l-7 3h-12l-12-6-8-9-5-10-5-15-5-22-4-28-2-20v-11l1-5-4-5-2-9-3-11v-48zm5 71-2 1 1 5 6-1-2-4zm16 45 1 2zm1 2 2 9 9 26h1v-13l-11-22z" fill="#239DBB"/>
<path transform="translate(394,594)" d="m0 0 32 4 3 2-2 18-2 26-6 23-5 5v4l2 2-7 40-7 28-7 19-8 15-7 8-8 5-6 2h-10l-3-11-1-7-8 6-11 10-14 9-12 5-4 1h-12l-10-6-8-10-6-12-7-21-6-26-4-27-1-18v-20l2-17 4-10 6-5 8-2 9 3 7 6 7 14 8 25 5 26 2 19 4 1 2-3h2v-2l11-9 14-12 10-12 6-12 3-13 2-7 2 3 1 11 5-5 6-7 5-2-1-8v-12l2-12 3-1 2 4 5-29zm2 72-4 3 1 3 5 2 2-6zm-15 38m-1 1-11 18-5 8-2 12v5l3-3 12-28 4-10z" fill="#C5A01E"/>
<path transform="translate(1328,1192)" d="m0 0 7 1 2 2-1 17-7 68-2 10-4 6-6 3h-147l-5-3-4-5-2-10-2-18-38-1 1-20 2-21 1-2h30l-1-11v-13l3 1 2 5 6-1 16-2 15 2h10l33-2h57l28-4z" fill="#424242"/>
<path transform="translate(1368,986)" d="m0 0h2l-1 23-4 29-6 24-8 21-9 17-9 12-11 12-11 9-21 11-11 4 58 1 7 1 5 5 2 4v6l-4 6-5 3h-3v10l-1 9-2 2-3-2-7 1-18 3-14 2h-57l-34 2h-10l-15-2-15 2-6 1-2-2v-4h-2l-2 2-2-24-6-1-5-5-1-9 3-6 3-2 57-1 3-3 3 1 14 1-3-3-11-8-3-1-1-7 1-12 4 2 5 4 10 5 8 7 4 5 2 5h-3v2l6 2v-2h2v2l6-1h8l4-18 10-30 8-17 7-11 7-9 7-7 22-18 10-9 12-11 13-13 10-14z" fill="#424242"/>
<path transform="translate(1232,339)" d="m0 0 1 4h109v203l-2 15-5 13-8 14-9 12-11 12-11 11-11 9-18 14-19 12-14 8-1 22h-1l-1-20-7 2-7-1-6-3v-2l-6-2-2-1v5h-2v5h-1v-13l-5-2-14-9-16-12-13-11-12-11-8-8-13-17-10-19-4-14v-211l1-1 125-1zm-109 21-1 1v92l1 92 2 14 8 16 9 13 12 13 10 10 14 11 18 13 19 12 7 3 5-1 14-8 19-13 13-10 13-11 18-18 14-21 5-13 1-5v-189l-45-1z" fill="#42B3D1"/>
<path transform="translate(88,946)" d="m0 0h48l11 2 9 5 6 5 6 10 2 5 1 6v53l-2 9-5 9-4 5-11 7-12 3h-51l-9-2-10-5-8-8-5-11-1-4-1-22v-23l1-15 5-12 9-10 12-6z" fill="#FCFCFC"/>
<path transform="translate(567,305)" d="m0 0h7l13 4 1 231v341h-18l-4-1v-442z" fill="#121767"/>
<path transform="translate(703,1219)" d="m0 0h276l2 5 3 32v6l-281 1-1-30z" fill="#121767"/>
<path transform="translate(339,472)" d="m0 0 16 1 14 5 11 7 12 10 9 13 4 11v7l-4 8-6 5-13 4-5 22-5 21-5 8-6 5-5 2-7 1-16-3-3 14v20l-2 3-3 1h-7l-8-4-8-9-8-14-1-2 2-11 3-28-1-10-4-19-2-9 2-5 2-2-1-3 3-16 4-9 6-9 7-6 12-6z" fill="#FBBE9D"/>
<path transform="translate(1442,538)" d="m0 0 16 1 12 4 8 6 7 8 4 11 1 17-1 8 4 4-1 8-3 6-4 17v27l1 21v3l-7 10-7 8-5 4-6 3h-9l-4-3-1-8 1-11h2l-2-14v-5l-11 2h-12l-8-4-5-6-4-11-6-41-1-4-10-1-10-6-4-8 1-9 6-7 4-3 8-3 5-8 7-6 12-6 12-3z" fill="#FABE9C"/>
<path transform="translate(1040,1038)" d="m0 0h22l11 4 10 7 7 8 6 14 3 13 1 16-3 21-4 15-8 18-9 13-9 8-8 4-6 1-1-1v-12l10-9 13-13v-2l-6 5-7 8-7 7h-3v-34l16-17 1-3-12 12-2 3-3-1v-28l6-4 4-5-7 6h-3v-17h-2v34l-4-2-8-7-1 1 7 7 6 5v33l-4-1-7-8-7-7-2-3-3-1 7 8 7 7 7 8 2 2v28l-3 1-11-4-9-8-1-4-3-1-8-14-6-14-4-16-2-13v-19l3-15 5-13 4-6 6-5 1-2 14-7z" fill="#36B762"/>
<path transform="translate(846)" d="m0 0h25v9l10 3 7 4h4l4-5 4 2 14 14-1 4-3 3h-2l6 13 2 6 9 1v25l-1 1h-8l-1 6-6 13 5 6-2 4-14 14h-2l-5-5-4 1-13 5h-3v10h-25l-1-9-13-5-7-3-3 6-4-1-15-15 2-5 3-3-2-5-4-11v-3h-10v-26l9-1 6-15 1-3-5-5 1-4 15-15 4 2 2 3 6-1 11-5 3-1zm9 38-10 3-7 5-6 9-2 7v10l4 11 8 8 8 4 4 1h9l10-4 8-6 5-10 1-4v-10l-4-11-4-5-10-6-10-2z" fill="#5273E4"/>
<path transform="translate(1368,986)" d="m0 0h2l-1 23-4 29-6 24-8 21-9 17-9 12-11 12-11 9-21 11-11 4 58 1v1h-81l-1-3 7-26 7-20 8-17 7-11 7-9 7-7 22-18 10-9 12-11 13-13 10-14z" fill="#38BC9E"/>
<path transform="translate(1179,972)" d="m0 0 3 4 5 25 7 24 2 1 4-16 2-9 3-1v-5h1l-1 11-6 22v14l12 32 11 27 1 6 2-1 5-15 3-17 1-9v-24l3 1v25l-3 19-4 15-3 9 1 5 8 18 4 6 4 11h-3v-2h-2l-1 2-5-9v-2l-3-1-5-5-5-4-11-6-6-5v19l4 1 10 7 3 2v2h-16l-5-4-20-9-13-8-9-7-6-5v-2l-4-2-3-3v-2l-4-2-9-11-12-20-7-17-5-16-5-27v-2l4 2 5 5 8 7 16 8 10 3 4 8 8 19 13 24 14 21 12 14 3 3 1-11-11-14-12-20-8-16-8-20 1-3 3 10h2v2l3-1-1-9-3-7v-2l3 1 6 9 8 7 18 12 2 1-3-10-11-33-4-15v-4h-2v-2l-5-2-10-8-7-9v-3h2l4 6 2 4h2v2l4 2 8 5-3-12z" fill="#28A48B"/>
<path transform="translate(1204,662)" d="m0 0 5 1 2 1v2l6 2 6 3 1 29v271l-1 6-3-1-2-4-5-4-7-8-2-2-2-62v-194z" fill="#121767"/>
<path transform="translate(974,1186)" d="m0 0h153l4 4 1 2v6l-4 5-4 1-1 17-3 1h-16l-18 2h-21l-22 1h-11l-10-1h-19l-16-1-5-2-2-4-1-10-3-3-6-5v-8z" fill="#424242"/>
<path transform="translate(987,64)" d="m0 0h7l1 5 11 2 5-1 1-2 5 1 10 6 2 3-2 2 1 5 6 9h7l4 16-2 2-4 1-2 11v5l4 2-2 5-7 11-7-2-8 6-3 1 1 6-6 3-13 1-1-5-14-2-2-1-2 5-12-6-3-2 1-8-6-8-2-3-6 1-2-7-2-11 1-1h6v-10l2-6-5-3 5-9 5-7 4 3 4-2 5-4 5-2-1-7 7-2zm3 28-7 3-5 4-4 8v12l3 6 8 7 5 2h10l8-4 6-8 2-5v-7l-3-8-5-6-5-3-4-1z" fill="#5274E4"/>
<path transform="translate(339,472)" d="m0 0 16 1 14 5 11 7 12 10 9 13 4 11v7l-4 8-6 5-13 4h-11l-12-5-9-6-10-9-8-10-5-5-3 11-8 16-8 10h-3l-1-16-6-4-3-1-1-3 3-16 4-9 6-9 7-6 12-6z" fill="#434343"/>
<path transform="translate(1301,423)" d="m0 0h5l-1 6-20 26-9 12-10 13-9 12-20 26-12 16-10 13-7 8-4 3-3 1h-11l-6-4-6-7-10-17-17-29-6-11 2-5 5 1 18 12 16 11 2 1h7l7-3 8-7 11-10 11-9 10-9 11-9 11-10 11-9 12-11z" fill="#43B4D2"/>
<path transform="translate(1442,538)" d="m0 0 16 1 12 4 8 6 7 8 4 11 1 17-1 7-6 1v2h-2l-3 9-3 3-5-2-4-11-1-15-22 10-21 7-18 3-13-1-10-6-4-8 1-9 6-7 4-3 8-3 5-8 7-6 12-6 12-3z" fill="#434343"/>
<path transform="translate(1149,1175)" d="m0 0h190v9l-1 9-2 2-3-2-7 1-18 3-14 2h-57l-34 2h-10l-15-2-15 2-6 1-2-2v-4h-2l-2 2z" fill="#606060"/>
<path transform="translate(325,258)" d="m0 0h17l1 5v8l7 2 14 6 1 4-7 14-5-1-12-5-8-1-8 1v2h-2v5l2 4 4 1 14 4 8 3 7 3v2l4 2 3 4v2l2 1 2 7v12l-2 5h-2v3h-2l-2 4-8 5-6 2h-4v15l-18 1v-16l-12-3-14-7-1-3 1-2h2l2-6 3-7h2v2l10 3 10 4h12l5-2 2-5-5-4-5-3-10-3-7-3-8-3-7-7-3-9v-10l3-8 4-5 5-4 7-4 3-1z" fill="#FCFCFC"/>
<path transform="translate(1184,209)" d="m0 0h8l13 4 11 7 8 9 6 13 2 11 1 85-2 5h-29v-1h22l-2-86-3-14-5-10-9-8-8-4-14-2-422-1v-1l33-1v-2l-2-2h23l14 2h73l5-2 7 1 1-1h13l5-1h220z" fill="#257FBC"/>
<path transform="translate(565,304)" d="m0 0h6l-4 1v136l-1 439h-8v-275l1-105 2-18 1-5 1-18 1-123z" fill="#257AB6"/>
<path transform="translate(1421,939)" d="m0 0 11 5 13 3 7 1h38l34-3 7-1h9v18h-1v-16l-10 2-3 1-6 8-3 1v2h-2v2h-2l-2 4-10 15-9 10-7 5-5 9-6 7h-4l-3-13-2-32-2-5-11 1-4 3h-2l-2 6-5 8-7 3-7 2-4 5-2 13h-1v-13l2-45z" fill="#616161"/>
<path transform="translate(1458,1188)" d="m0 0h1v15l-3 47-7 3 1 7 5 14-1 7-5 3-34 7-11 1-10-2-2-3 1-6 11-8 11-7 8-7 1-5-6-2-3-2v-12l3-5 6-5 3-6 7-4 7-7 3-5h2l2-5 7-10z" fill="#1D1C1C"/>
<path transform="translate(1529,1198)" d="m0 0h1l2 15 2 42-2 2h-5l8 23v7l-4 3-39 8h-14l-5-3 1-7 8-7 14-9 7-7 1-7h-7l-5-3-1-5v-7l8-10 10-8 7-10 7-11z" fill="#1D1C1C"/>
<path transform="translate(612,85)" d="m0 0h17l11 4 9 8 3 7v31l-1 1h-61l-1-1v-30l4-9 7-6 8-4z" fill="#5276E3"/>
<path transform="translate(1521,771)" d="m0 0h1v10l-6 24-3 10-2 8h-2l1 3-2 4-2 7-4 10-5 10-7 9-8 6-4 2-8 1-9-2-16-8-14-12-7-7v-3h-2l-1-2v-17h5l10 8 6 8 7 5 7 1 5-2 1-2 4 4v-2-6l4 4h3l2-2 3 2v-9l2-2 4 1v2h2l3-9 2-3v3h2v-3l5-1 3-7 4-5 5-17 3-12 2-5 5-3z" fill="#2794B3"/>
<path transform="translate(1096,1074)" d="m0 0 2 4 2 16-1 16-5 23-7 17-8 13-9 10-9 5-8 2-1-1v-12l10-9 13-13v-2l-6 5-7 8-7 7h-3v-34l16-17 1-3-7 7-1-4v-3l-3-2 1-7 5-3 9 1 7-5 6-7h4l1-2 4-2z" fill="#42B18B"/>
<path transform="translate(1102,1012)" d="m0 0 4 2 5 5 8 7 16 8 10 3 4 8 8 19 10 19 1 5-1 4 6 12 2 5v4l-4-2-13-13-6-8-2-15-2-5-2-8v2l3 15v3l-3-1-6-10-7-14 3 9 9 16 9 12 1 4h-6l-15-7-3 2-7-10-8-16-7-18-5-23z" fill="#25A389"/>
<path transform="translate(1123,1204)" d="m0 0 1 2-1 15-3 1h-16l-18 2h-21l-22 1h-11l-10-1h-19l-16-1-5-2-2-4-1-12z" fill="#5F5F5F"/>
<path transform="translate(1231,667)" d="m0 0h1v321l-6-5-5-5 2-9v-298l-2-1z" fill="#2480BD"/>
<path transform="translate(703,1219)" d="m0 0 4 1h-2v34h278l1 2v6l-281 1-1-30z" fill="#27567F"/>
<path transform="translate(1024,1103)" d="m0 0 5 1 4 2h5l1-3 11 10v33l-4-1-7-8-7-7-2-3-3-1 7 8 7 7 7 8 2 2v28l-3 1-11-4-9-8-1-4-3-1-8-14-6-14-4-16v-3h2l1 5 4-1 1-5 4-10z" fill="#42B18B"/>
<path transform="translate(1251,1059)" d="m0 0 2 4h2l1 5h6v20l-3 19-7 25-6 16-3 1-5-11-7-14-5-11 2-9 4-14 3-14 1-9 2 1 2-7 2 1 8-2z" fill="#23A286"/>
<path transform="translate(1348,1081)" d="m0 0h2l-1 6-9 16-8 10-9 10-9 8-14 8-15 7-6 2 58 1v1h-65l-11-1 2-4 12-13 30-7-13 2h-9l1-2h2l2-5 4-1 2-6 6-4 7-7 8-5 6-1v-2l6-2 10-3 4-3h3v-2z" fill="#2CA68C"/>
<path transform="translate(394,594)" d="m0 0 32 4 3 2-2 18-2 26-6 23-2 2-12-1-6-1 1-4 6-9 4-11 1-4v-8l-4-13-3 1-9 17-5 5h-2l-1-5v-14l4-22z" fill="#636363"/>
<path transform="translate(557,301)" d="m0 0 6 3 1 7v153l-1 17-1 1-2 22-1 105-1 271h-1z" fill="#43B4D2"/>
<path transform="translate(617,166)" d="m0 0h9l8 5 4 5 2 4v8l-5 10-6 5-1 27-4 4-4 1-5-3-2-3-1-26-8-9-2-6 1-10 4-6 7-5z" fill="#5276E4"/>
<path transform="translate(1522,1258)" d="m0 0h5l8 22v7l-4 3-39 8h-14l-5-3 1-7 8-7 14-9 7-7 1-6z" fill="#444"/>
<path transform="translate(1447,1253)" d="m0 0h1l4 13 3 8-1 7-5 3-34 7-11 1-10-2-2-3 1-6 11-8 11-7 8-7 1-4h15z" fill="#464646"/>
<path transform="translate(1132,1056)" d="m0 0 3 3 8 16 4 6 2 1-4-18-1-5 3 3 4 13 2 15 9 11 11 11 2 1-5-14-1-5 3 3 5 11 2 8 9 9 3 1 2 5 5 2 3 3 6 2 10 7 3 2v2h-16l-5-4-20-9-13-8-9-7-6-5v-2l-4-2-3-3v-2l-4-2-9-11 1-4 6 2 11 5 6 1-3-5-11-16-8-16z" fill="#28A48F"/>
<path transform="translate(331,1251)" d="m0 0 7 1 4 5 3-1 5-5h4l-2 5-4 7 2 5 4 6 2 1 2-4 4-5-1-5-6-8v-2l8 1 4 5 3-1 3-4 6-1-2 5-4 6 1 5 6 7 4-5 3-4-1-4-5-9 2-1 6 2 4 5 5-6 4-1 1 3-6 9 2 4 5 7v2l-7-1-4-5-3 1-4 5h-12l-4-4-1-2-4 2-4 4h-12l-6-7-7 7h-12l-5-6-3 1-4 5h-5l1-4 5-7-1-4-5-7v-2h7l4 6 6-6z" fill="#FCFCFC"/>
<path transform="translate(466,1251)" d="m0 0 2 2-6 10 2 5 4 5 4-1 5-9-6-9-2-2 4-1 5 2 3 4h2l4-5 6-1-2 5-4 6 1 5 5 7 4-4 4-7-7-11h7l6 6 4-6 4-1h7l5 2 3 4v2h2l2-5 2-2h6l-4 7-3 5 7 10v2h-5l-6-7-7 7h-12l-7-7-4 6-2 1h-11l-7-7-6 7h-12l-6-7-7 7h-5l2-4 5-7-2-5-5-7v-1h8l3 5v2h2l2-4 2-3z" fill="#FCFCFC"/>
<path transform="translate(766,208)" d="m0 0h413l5 1v1l-31 1h-222l-9 1h-7l-2 1-7-1-6 2h-74l-11-2-27-1h-13l-9-2z" fill="#43B4D2"/>
<path transform="translate(1432,358)" d="m0 0h5l5 9v2l10 3 6 2v6l-7 7v16l-2 2-7-1-5-3-7 1-10 3-3-3 1-14-8-9v-5l8-3 7-2 6-10z" fill="#FCFCFC"/>
<path transform="translate(1492,358)" d="m0 0 5 1 2 4 3 3v3l10 3 6 2v6l-7 7v16l-2 2-7-1-5-3-8 1-7 3-4-1v-18l-4-2-4-5 1-5 8-3 6-3z" fill="#FCFCFC"/>
<path transform="translate(1553,357)" d="m0 0 4 2 6 9 5 3 10 3 1 4-7 8-2 3 1 14-3 2-6-1-5-3-7 1-5 2h-7l-1-4v-13l-7-8 1-5 8-3 6-2 7-11z" fill="#FCFCFC"/>
<path transform="translate(1203,1118)" d="m0 0 4 2 5 4 10 5 8 7 4 5 2 5h-3v2l6 2v-2h2v2l6-1h25l72 1 1 2h-12l-22 1h-13l-15 1h-33l-53 1-10-1h-32l-9 3-6 1-2 1 1-5 4-3 57-1 3-3 3 1 14 1-3-3-11-8-3-1-1-7z" fill="#626263"/>
<path transform="translate(1223,671)" d="m0 0 2 1 1 169 3 8 2 19 1 26v94l-6-5-5-5 2-9z" fill="#26567F"/>
<path transform="translate(339,472)" d="m0 0h8v1l-8 2-6 15-8 11-3 6-9 8-4 5-2 6v6l1 2v6l5-3-2 4-3 4h-3l-1-16-6-4-3-1-1-3 3-16 4-9 6-9 7-6 12-6z" fill="#646464"/>
<path transform="translate(1123,1219)" d="m0 0 30 1 2 16 1 18h-36v-12l2-21z" fill="#121767"/>
<path transform="translate(603,1251)" d="m0 0h3l-1 4-5 8 2 4 4 6v2l5-5 3-5-1-5-5-7v-1h7l4 5v2h2l2-5 2-2 8-1 7 2 5 5 5-6 4-1 2 2-7 10 4 7 3 5-1 1h-5l-5-7-5 5-3 2h-11l-7-7-6 7h-12l-5-6-4 2-4 4-4 1-1-2 7-10-2-5-4-6v-2h6l5 6 5-5z" fill="#FCFCFC"/>
<path transform="translate(405,617)" d="m0 0 3 1 4 13v8l-3 10-6 12-3 3-2 3-5 2h-3l-9-6-3-1v-3l2-1-1-8v-12l2-12 3-1 2 4h1l1 12 7-6 8-16z" fill="#FBC1A0"/>
<path transform="translate(1373,657)" d="m0 0h15l1 1 2 17v16l-2 11-4-2-6-13-3-9h-6l-2 6-1 2-3-1-2-6-6 1-3 1-1-4v-18z" fill="#1D1C1C"/>
<path transform="translate(1179,972)" d="m0 0 3 4 5 25 7 24 2 1 4-16 2-9 3-1v-5h1l-1 11-6 22v14l12 32 11 27 1 6 2-1 5-15 3-17 1-9v-24l3 1v25l-3 19-4 15-3 9 1 5 8 18 4 6 4 11h-3l-6-10-3-6-7-6-8-7-17-17-8-12-1-4 3 1 7 12 15 16 11 10 4 2-14-31-11-27-21-14-10-8-8-10-1-4 3 1 6 9 8 7 18 12 2 1-3-10-11-33-4-15v-4h-2v-2l-5-2-10-8-7-9v-3h2l4 6 2 4h2v2l4 2 8 5-3-12z" fill="#FCFCFC"/>
<path transform="translate(1373,680)" d="m0 0 3 1 6 17 6 8 2 1 2-17 2-3h3l1 9v16l-2 10 2 1-5 4-7 4-5-1-2-1-3-6-4-6-6-17 1-10 5-9z" fill="#FBC6A8"/>
<path transform="translate(1278,1086)" d="m0 0 1 2h2l1 4h2l1 5 3 1 1 7-2 13-10 11-18 18 1 3-5-1 4-18 10-30 7-14z" fill="#25A388"/>
<path transform="translate(1372,677)" d="m0 0 5 1 6 16 4 7 2 1v-7l2-9h1v14l-2 7-4-2-6-9-5-15-3 1-4 8-1 10 6 17 4 6 2 5-4 1-15 1-3-3-2-9-3-11v-18l1-8 5-3 5 1 2 6 2 1 2-6z" fill="#535353"/>
<path transform="translate(389,1133)" d="m0 0 7 1h16l13 12 7 7 5 7 1 7-9-2-27-9-16-8-1-5 3-9z" fill="#5F5F5F"/>
<path transform="translate(491,1087)" d="m0 0 11 6 14 9 9 8v3h-16l-15-1-21-4-4-2v-13l1-1 15-2 6-1z" fill="#606060"/>
<path transform="translate(194,1251)" d="m0 0 7 2 3 4 3-1 3-4 5-1v3l-5 8 1 5 5 6 4-2 4-6-1-4-5-8v-1h6l5 6 8-7h3l-2 5-4 7 2 5 4 5 4-2 4-6-1-4-6-9 3-1 6 2 3 4 3-1 3-4h5l-1 4-5 8 7 10v2l-7-1-4-5-3 1-4 5h-11l-5-5-1-3h-2l-2 5-3 3h-12l-5-5h-4l-4 5h-4l2-5 4-6-2-5-4-7z" fill="#FCFCFC"/>
<path transform="translate(1423,541)" d="m0 0 2 1-4 10-6 10-14 15-6 7-6 4h-2v2h-2l1 5-5-3-4-8 1-9 6-7 4-3 8-3 5-8 7-6 12-6z" fill="#666"/>
<path transform="translate(1233,1041)" d="m0 0 2 3v21l-3 21-3 12-4 9h-2l-8-21-10-25-5-13v-2h2l5 13 4 3 1-2v2h2l2-4h3l1-3 2 1-1 4 4-1 2 3h2v-3l3-1z" fill="#29A58D"/>
<path transform="translate(1552,879)" d="m0 0 2 1v18l-2 16-3 6-4-1v-6h-2v-3l-5 2-1-4h-2v8l-1 2-6-1-1-9v-9l2-3 2-10 3-2h2l1-3 10 1z" fill="#2894B4"/>
<path transform="translate(1490,1276)" d="m0 0 2 1-2 4 6 1h25l9-1 4-4 1 3v7l-4 3-39 8h-14l-5-3 1-7 8-7z" fill="#646464"/>
<path transform="translate(1451,1266)" d="m0 0 2 3 2 5-1 7-5 3-34 7-11 1-10-2-2-3 1-6 11-8 2 1-2 2 1 1 33-1 12-1z" fill="#626262"/>
<path transform="translate(1356,1024)" d="m0 0 1 2-7 14 10-2v2l-13 6h-2v2h-2l-2 5-8 12-3 7-9 10-1 4 14-4 11-4 2 1-6 5-19 7-10 1-2 4-9 11-6 6-3 6-4 2-2 4-2 1h8l10-2h7l-4 2-30 7-7 7-7 9-3-2 20-20 11-12 1-11 1-1 3-22h1l-1 26 5-2 1-4 7-8 6-5 3-7 6-5 6-10 7-8 12-19 8-14z" fill="#7FCBDF"/>
<path transform="translate(355,1251)" d="m0 0 8 1 4 5 3-1 3-4 6-1-2 5-4 6 1 5 6 7 4-5 3-4-1-4-5-9 2-1 6 2 4 5 5-6 4-1 1 3-6 9 2 4 5 7v2l-7-1-4-5-3 1-4 5h-12l-4-4-1-2-4 2-4 4h-6l3-5 4-5-1-5-6-8z" fill="#FCFCFC"/>
<path transform="translate(1203,1118)" d="m0 0 4 2 5 4 10 5 8 7 4 5 2 5h-3l-1 3h-12l-3-3-11-8-3-1-1-7z" fill="#27567F"/>
<path transform="translate(399,509)" d="m0 0 3 1 3 9v7l-4 8-6 5-9 3h-7l-3-2 1-5 5-5 9-10 6-10z" fill="#1E1D1D"/>
<path transform="translate(349,869)" d="m0 0 4 2 11 9 9 9 8 7 6 7 4 11 4 12 1 8-6-2-6-3-5-21-3-6-9-12-11-12-1-3h-2z" fill="#131966"/>
<path transform="translate(1438,774)" d="m0 0 7 6 8 8 4 2 4 7 3 1 1-5 4 1 1 5 1 2v10l-3 3-7 1-5-2-5-11-3-7v-3h-2l-2-7h-2l-4-7z" fill="#2894B2"/>
<path transform="translate(381,630)" d="m0 0h1v8l3 8h5l11-11 6 1 1 4-3 6-5 5-4 9-5 3-5 1-7-4 1-7-1-3v-12l1-7z" fill="#FCFCFC"/>
<path transform="translate(703,1219)" d="m0 0 4 1h-2l1 39 13 1h130l108 1v1l-254 1-1-30z" fill="#2580BE"/>
<path transform="translate(1203,661)" d="m0 0 2 1-2 40v194l1 32v28l-5-5h2v-285h2z" fill="#5C6588"/>
<path transform="translate(1132,1056)" d="m0 0 3 3 8 16 4 6 2 1-4-18-1-5 3 3 4 13 2 15 9 11 11 11 2 1-5-14-1-5 3 3 5 11 2 8 9 9 3 1 2 5 5 2 8 6 4 4-5-2-10-6-19-6-10-4v-2l10 3 9 3-3-4v-3l-4-2-15-15-6-4-4-7-11-15-10-20z" fill="#FCFCFC"/>
<path transform="translate(1167,1085)" d="m0 0 4 4 10 16 9 11 9 10 1-9h3v20l-4-2-6-4-2-5-5-1-5-5-4-6-2-7-5-12h-2l-2-5z" fill="#2AA691"/>
<path transform="translate(1487,567)" d="m0 0 2 1 1 17-1 7-9 2-3 8-4 1-2-3v-10l5-9 6-8z" fill="#1E1D1D"/>
<path transform="translate(1453,1272)" d="m0 0 2 2-1 7-5 3-34 7-11 1-10-2-2-3 1-6 1 3 5 1 2 1h7l19-4 23-5 2-1z" fill="#FCFCFC"/>
<path transform="translate(895,264)" d="m0 0 7 2 3 4v9l-4 5-2 1h-8l-4-2-2-3v-8l3-6z" fill="#FCFCFC"/>
<path transform="translate(1534,1280)" d="m0 0h1v7l-4 3-39 8h-14l-5-3 1-7 1 2 5 2h13l37-8h3z" fill="#FCFCFC"/>
<path transform="translate(418,620)" d="m0 0 4 1 4 2v11l-2 15-3 11-2-1-4-15v-15l2-8z" fill="#FBCAB0"/>
<path transform="translate(1119,1254)" d="m0 0h37l1 8h-38z" fill="#27567F"/>
<path transform="translate(1358,681)" d="m0 0 4 1 1 6v12l-5 15-3 3-3-11v-18l1-6z" fill="#FBCAB0"/>
<path transform="translate(603,1251)" d="m0 0h3l-1 4-5 8 2 4 5 9h-6l-5-6-4 2-4 4-4 1-1-2 7-10-2-5-4-6v-2h6l5 6 5-5z" fill="#FCFCFC"/>
<path transform="translate(188,1251)" d="m0 0h3l-2 5-4 7 2 5 4 5v3h-5l-5-6-3-1-2 4-3 3h-5l5-9 2-4-6-9v-2h6l5 6 4-5z" fill="#FCFCFC"/>
<path transform="translate(1364,701)" d="m0 0 2 1 3 11 6 11v2l3 1-3 2-15 1-3-3v-8l6-13z" fill="#201F1F"/>
<path transform="translate(1176,1131)" d="m0 0h9l12 4 12 7-6-4 3-1 11 8 3 2v2h-16l-5-4-16-7-5-5z" fill="#29A295"/>
<path transform="translate(677,1251)" d="m0 0 3 1-6 11 2 5 4 5v3h-5l-5-6-4 2-4 4h-5l7-11v-3l-6-9v-1h6l5 6 4-4 1-2z" fill="#FCFCFC"/>
<path transform="translate(1522,1258)" d="m0 0h5l3 9-10 3h-10l-8-1-5 5-2-1 8-8 1-6zm-29 16 2 1h-3z" fill="#F3C9B0"/>
<path transform="translate(1204,1120)" d="m0 0 7 6 13 13v9l-5-1-5-3-7-8-3-3z" fill="#121867"/>
<path transform="translate(1535,941)" d="m0 0 8 1-2 2-36 4-15 1h-38l-11-2-1-2 16 1h25l39-3z" fill="#239DBB"/>
<path transform="translate(405,1122)" d="m0 0h4l1 12-1 1h-13l-7-2 1-8z" fill="#FBC0A0"/>
<path transform="translate(517,1253)" d="m0 0h3l6 9-1 4-4 6-4 2-7-9 2-6z" fill="#43B4D2"/>
<path transform="translate(631,1253)" d="m0 0h3l6 9-1 4-6 8-4-2-5-6 1-5z" fill="#43B4D2"/>
<path transform="translate(329,1253)" d="m0 0h3l6 9-1 5-6 7-5-3-4-6 2-5z" fill="#43B4D2"/>
<path transform="translate(1552,879)" d="m0 0 2 1v9l-7 1-2 5h-2l-1 2-2-10h-2l-2 7-2-3v-2l-3 1 1-5 4-1 1-3 10 1z" fill="#239DBB"/>
<path transform="translate(483,1079)" d="m0 0h2l6 8v2l-10 3-12 1-2-6z" fill="#FBC3A4"/>
<path transform="translate(1447,1253)" d="m0 0h1l1 7-8 3h-13l-6-2 2-6h15z" fill="#FBD3B8"/>
<path transform="translate(1203,661)" d="m0 0 2 1-2 40-1 55h-1v-91h2z" fill="#5F6061"/>
<path transform="translate(1356,1024)" d="m0 0 1 2-7 14 10-2v2l-13 6h-2v2h-2l-2 5-10 15-7 8v-3l6-10 7-8 11-18 7-12z" fill="#FCFCFC"/>
<path transform="translate(1292,1111)" d="m0 0 2 1-3 5-5 5-5 6 6-1 15-3h7l-4 2-30 7-7 7-7 9-3-2 20-20 11-12z" fill="#FCFCFC"/>
<path transform="translate(1372,677)" d="m0 0 5 1 6 16 4 7 2 1v-7l2-9h1v14l-2 7-4-2-6-9-5-15-3 1-3 4-1-5z" fill="#4C4C4C"/>
<path transform="translate(703,1219)" d="m0 0 4 1h-2l1 39 13 1 5 1v1l-21 1-1-30z" fill="#267CA9"/>
<path transform="translate(1345,1078)" d="m0 0 2 1-6 5-19 7-8 1 2-3 1-4 3-3-1 4 12-3 7-3z" fill="#69C3DA"/>
<path transform="translate(1166,1123)" d="m0 0 10 3 9 3-3-4 1-2 4 4 4-1 2 5 5 2 8 6 4 4-5-2-10-6-19-6-10-4z" fill="#97D5DE"/>
<path transform="translate(1330,1038)" d="m0 0h3l1 18 4-3-2 5-7 8-2 2 2-22z" fill="#6EC4DB"/>
<path transform="translate(1542,898)" d="m0 0 1 4h2l2 10 1 2h2l2-4-1 7-3 3-3-1v-6h-2v-3l-5 2-1-4h-2v-5h2l2 4 2-7z" fill="#249EBC"/>
<path transform="translate(1202,896)" d="m0 0h1l1 32v28l-5-5h2v-25z" fill="#2B5987"/>
<path transform="translate(1205,995)" d="m0 0h1l-1 11-6 22-1 11h-1l-3-13h2l4-16 2-9 3-1z" fill="#A8DBD7"/>
<path transform="translate(1522,883)" d="m0 0 2 1 1 3v20l-2 1-1-6-1 5h-1v-21z" fill="#239DBB"/>
<path transform="translate(1503,840)" d="m0 0 1 3-7 14-7 9-8 6-4 2-8 1-9-2v-1h11l9-2 7-6h2l2-4 6-10z" fill="#239DBB"/>
<path transform="translate(1375,728)" d="m0 0 3 1h-2l1 5-8 2h-8v-6l1-1z" fill="#FBDBC9"/>
<path transform="translate(399,667)" d="m0 0 13 1 3 2-2 5-11-1-3-1z" fill="#FBC7AB"/>
<path transform="translate(1440,945)" d="m0 0 16 1 1 1h48v1l-15 1h-38l-11-2z" fill="#2D9AAC"/>
<path transform="translate(295,543)" d="m0 0 5 2 2 2v7l-3 9-2-4-2-10z" fill="#FCFCFC"/>
<path transform="translate(282,1259)" d="m0 0h9l2 1v5l-3 1h-9l-2-1 1-5z" fill="#FCFCFC"/>
<path transform="translate(420,1259)" d="m0 0h9l3 2-1 4-4 1h-8l-1-1v-5z" fill="#FCFCFC"/>
<path transform="translate(1297,1071)" d="m0 0h2l-1 8-3 15h-1v-7l-2 16h-1v-12l3-18z" fill="#43B4D2"/>
<path transform="translate(1163,1121)" d="m0 0 4 1-1 3 10 3 5 2-3 2 5 5-6-2-11-7-4-4z" fill="#31A3B9"/>
<path transform="translate(1331,1067)" d="m0 0v3l-9 11-5 5-1 5-8 4 2-4 3-3 3-7 11-9z" fill="#5BBDD7"/>
<path transform="translate(1197,1047)" d="m0 0 2 2 5 14-1 3-11-7 4-4z" fill="#30AA9A"/>
<path transform="translate(1358,678)" d="m0 0 5 1 2 6 4-1-1 6-3 8h-1l-1-9-2-7-8 1v-2z" fill="#484848"/>
<path transform="translate(402,621)" d="m0 0 1 2-8 16-6 6-4-2v-8l1-6h1l1 12 7-6z" fill="#FCFCFC"/>
<path transform="translate(1197,1136)" d="m0 0 10 5-4-4 4 1 10 7 3 2v2l-7-1-11-7-3-1v-2h-2z" fill="#3BADB0"/>
<path transform="translate(1197,1139)" d="m0 0 7 2 9 6 2 2h-11l-5-4v-2l-2-1z" fill="#275581"/>
<path transform="translate(1049,1076)" d="m0 0h1v33l-4-2-1-4h2l1-22z" fill="#42B2A9"/>
<path transform="translate(1203,661)" d="m0 0 2 1-2 40h-1l-1-23v-13h2z" fill="#27567F"/>
<path transform="translate(410,628)" d="m0 0 2 3v8l-3 10-6 12-3 3-2 3-1-4 5-6 7-15z" fill="#FCFCFC"/>
<path transform="translate(557,1260)" d="m0 0h13v5l-5 1h-7l-1-1z" fill="#FCFCFC"/>
<path transform="translate(1425,1252)" d="m0 0h24l-2 2-8 2h-9l-8-2z" fill="#535353"/>
<path transform="translate(1144,1059)" d="m0 0 3 3 4 13 1 13-4-5-1-10-3-11z" fill="#99D5E5"/>
<path transform="translate(1068,1102)" d="m0 0 4 2v2h-3l-1 4-7 6 1-6 2-4h2z" fill="#3CB57B"/>
<path transform="translate(1391,686)" d="m0 0h1v14l-2 7-4-2-2-5 5 2v-7z" fill="#545454"/>
<path transform="translate(1510,892)" d="m0 0 2 1v19l-2 2-1-4v-16z" fill="#239DBB"/>
<path transform="translate(1314,1119)" d="m0 0h5l-1 4-7 3h-6l-3-3z" fill="#5DBECF"/>
<path transform="translate(1201,1116)" d="m0 0 2 1v13l-5-2-7-7 1-2 7 7 1-9z" fill="#4C97D3"/>
<path transform="translate(1535,941)" d="m0 0 8 1-2 2-28 3v-2l12-2z" fill="#299BB1"/>
<path transform="translate(1527,899)" d="m0 0h1l2 10 4 4 1-2-1 7-6-1-1-9z" fill="#239DBB"/>
<path transform="translate(1372,694)" d="m0 0 4 1v9l-4 1-2-2v-8z" fill="#FCFCFC"/>
<path transform="translate(1366,702)" d="m0 0 2 2 7 17 4 5-1 2-4-4-7-13z" fill="#4A4A4A"/>
<path transform="translate(305,530)" d="m0 0 3 4v6l5-3-2 4-3 4h-3z" fill="#606060"/>
<path transform="translate(1516,1256)" d="m0 0h16v1l-10 2h-18v-1z" fill="#4B4B4B"/>
<path transform="translate(1192,1130)" d="m0 0 6 3 8 6 4 4-5-2-10-6-10-3 4-1z" fill="#FCFCFC"/>
<path transform="translate(1396,695)" d="m0 0 2 1v16l-3 3-2-6 2-2z" fill="#FCFCFC"/>
<path transform="translate(1319,1082)" d="m0 0 1 2v2l7 1v2l-9 3-4-1 2-2 1-4z" fill="#43B4D2"/>
<path transform="translate(1486,612)" d="m0 0h2l-1 9-2 6-2-3v-9z" fill="#464545"/>
<path transform="translate(327,506)" d="m0 0 3 1-1 2-2-1-3 11-6 12-1-2 5-11 2-10z" fill="#606060"/>
<path transform="translate(1307,1093)" d="m0 0h3l2 1-7 8-6 2 2-4z" fill="#47B5D2"/>
<path transform="translate(1357,1021)" d="m0 0h2l-1 6-6 12 3 1-6 1 3-7 4-9-2 1 2-4z" fill="#4BB7D3"/>
<path transform="translate(1230,1098)" d="m0 0h1l-1 17 1 6-2-1-3-7 2-9z" fill="#42B3B6"/>
<path transform="translate(1163,1121)" d="m0 0 4 1-1 3 7 2-2 1 1 3-5-2-5-5z" fill="#43B1C3"/>
<path transform="translate(1167,1085)" d="m0 0 4 4 3 6h-2l-1 2-5-5z" fill="#66C5CC"/>
<path transform="translate(1292,1115)" d="m0 0 2 1-2 3-4 2-2 4-2 1 3 2-6 1v-3l7-8z" fill="#40B5C6"/>
<path transform="translate(1136,1091)" d="m0 0 13 6 6 2v1l-8-1-12-6z" fill="#FCFCFC"/>
<path transform="translate(1319,1080)" d="m0 0v3l-2 3-1 5-8 4 2-4z" fill="#FCFCFC"/>
<path transform="translate(1352,695)" d="m0 0h1l3 13-1 8-2-4-1-5z" fill="#FCFCFC"/>
<path transform="translate(1378,684)" d="m0 0 2 3 5 11-1 3-4-5-2-7z" fill="#494949"/>
<path transform="translate(1203,1130)" d="m0 0 4 5 7 7h-3l-5-4-3-1-1-6z" fill="#265C7F"/>
<path transform="translate(384,929)" d="m0 0 5 1-3 1 2 12v6h-1l-3-16z" fill="#2598B4"/>
<path transform="translate(1146,1069)" d="m0 0 2 4 1 9-3-1-4-7h2l1 2z" fill="#3BBAAC"/>
<path transform="translate(1197,1023)" d="m0 0 2 3-1 13h-1l-3-13h2z" fill="#42B3BE"/>
<path transform="translate(1520,943)" d="m0 0h5l-3 2h-9v2h-10v-1l7-2z" fill="#249AB8"/>
<path transform="translate(296,546)" d="m0 0 3 1v11h-2l-1-3z" fill="#696969"/>
<path transform="translate(1358,678)" d="m0 0 5 1v3l-10 1v-2z" fill="#4A4A4A"/>
<path transform="translate(1211,1144)" d="m0 0 8 2 1 3-7-1-2-1z" fill="#71B0DD"/>
<path transform="translate(1362,706)" d="m0 0 1 2-6 13-1-4 4-9z" fill="#474747"/>
<path transform="translate(1371,714)" d="m0 0 6 9 2 5-4-2-4-7z" fill="#4C4C4C"/>
</svg>
